<?xml version="1.0" encoding="UTF-8"?>
<svg xmlns="http://www.w3.org/2000/svg" viewBox="0 0 920 340" width="920" height="340">
<style><![CDATA[
  .t { font: 700 15px sans-serif; fill: #1a1a2e; text-anchor: middle; }
  .st { font: 11px sans-serif; fill: #666; text-anchor: middle; }
  .lb { font: 600 11px sans-serif; fill: #222; text-anchor: middle; }
  .dt { font: 10px sans-serif; fill: #555; text-anchor: middle; }
  .an { font: 9px sans-serif; fill: #2563eb; text-anchor: middle; }
  .arr { stroke: #666; stroke-width: 1.5; fill: none; marker-end: url(#csaa); }
  .arr-b { stroke: #4A90D9; stroke-width: 1.5; fill: none; marker-end: url(#csaab); }
  .arr-g { stroke: #27AE60; stroke-width: 1.5; fill: none; marker-end: url(#csaag); }
  .arr-o { stroke: #E67E22; stroke-width: 1.5; fill: none; marker-end: url(#csaao); }
]]></style>
<defs>
  <marker id="csaa" markerWidth="7" markerHeight="7" refX="6" refY="3.5" orient="auto"><path d="M0,0 L7,3.5 L0,7 Z" fill="#666"/></marker>
  <marker id="csaab" markerWidth="7" markerHeight="7" refX="6" refY="3.5" orient="auto"><path d="M0,0 L7,3.5 L0,7 Z" fill="#4A90D9"/></marker>
  <marker id="csaag" markerWidth="7" markerHeight="7" refX="6" refY="3.5" orient="auto"><path d="M0,0 L7,3.5 L0,7 Z" fill="#27AE60"/></marker>
  <marker id="csaao" markerWidth="7" markerHeight="7" refX="6" refY="3.5" orient="auto"><path d="M0,0 L7,3.5 L0,7 Z" fill="#E67E22"/></marker>
</defs>
<text x="460" y="22" class="t" text-anchor="middle">Attention / KV 演进链</text><rect x="120" y="50" width="680" height="44" rx="6" fill="#f8f9fc" stroke="#94a3b8" stroke-width="1.5"/><text x="460" y="72" class="lb" text-anchor="middle">MLA（per-token latent KV）</text><line x1="460" y1="94" x2="460" y2="104" class="arr"/><rect x="120" y="106" width="680" height="44" rx="6" fill="#f8f9fc" stroke="#94a3b8" stroke-width="1.5"/><text x="460" y="128" class="lb" text-anchor="middle">DSA（indexer + top-k 稀疏）</text><line x1="460" y1="150" x2="460" y2="160" class="arr"/><rect x="120" y="162" width="680" height="44" rx="6" fill="#f8f9fc" stroke="#94a3b8" stroke-width="1.5"/><text x="460" y="184" class="lb" text-anchor="middle">CSA（4:1 块压缩 + 压缩序列 top-k）</text><line x1="460" y1="206" x2="460" y2="216" class="arr"/><rect x="120" y="218" width="680" height="44" rx="6" fill="#f8f9fc" stroke="#94a3b8" stroke-width="1.5"/><text x="460" y="240" class="lb" text-anchor="middle">HCA（128:1 重压缩 + 短序列 dense）</text><line x1="460" y1="262" x2="460" y2="272" class="arr"/><rect x="120" y="274" width="680" height="44" rx="6" fill="#f8f9fc" stroke="#94a3b8" stroke-width="1.5"/><text x="460" y="296" class="lb" text-anchor="middle">+ SWA / Indexer / tail（V4 异构 KV 五类对象）</text></svg>