<?xml version="1.0" encoding="UTF-8"?>
<svg xmlns="http://www.w3.org/2000/svg" viewBox="0 0 960 560"
     font-family="Helvetica Neue,Arial,sans-serif">
  <rect width="100%" height="100%" rx="12" fill="#f8fafc" stroke="#e2e8f0"/>
  <text x="40" y="32" font-size="18" font-weight="700" fill="#1a1a2e">IsoFLOP family (val BPB vs M)</text>
  <text x="40" y="52" font-size="12" fill="#64748b">Skipped abandoned / truncated jobs. Gold markers are Formula 4 valley proxies.</text>
  <line x1="16.3" y1="72" x2="16.3" y2="504" stroke="#e2e8f0"/><text x="16.3" y="522" text-anchor="middle" font-size="11" fill="#64748b">10^8</text><line x1="348.3" y1="72" x2="348.3" y2="504" stroke="#e2e8f0"/><text x="348.3" y="522" text-anchor="middle" font-size="11" fill="#64748b">10^9</text><line x1="680.3" y1="72" x2="680.3" y2="504" stroke="#e2e8f0"/><text x="680.3" y="522" text-anchor="middle" font-size="11" fill="#64748b">10^10</text><line x1="1012.3" y1="72" x2="1012.3" y2="504" stroke="#e2e8f0"/><text x="1012.3" y="522" text-anchor="middle" font-size="11" fill="#64748b">10^11</text>
  <line x1="72" y1="511.9" x2="924" y2="511.9" stroke="#e2e8f0"/><text x="64" y="515.9" text-anchor="end" font-size="11" fill="#64748b">0.6</text><line x1="72" y1="466.6" x2="924" y2="466.6" stroke="#e2e8f0"/><text x="64" y="470.6" text-anchor="end" font-size="11" fill="#64748b">0.8</text><line x1="72" y1="421.2" x2="924" y2="421.2" stroke="#e2e8f0"/><text x="64" y="425.2" text-anchor="end" font-size="11" fill="#64748b">1.0</text><line x1="72" y1="375.9" x2="924" y2="375.9" stroke="#e2e8f0"/><text x="64" y="379.9" text-anchor="end" font-size="11" fill="#64748b">1.2</text><line x1="72" y1="330.5" x2="924" y2="330.5" stroke="#e2e8f0"/><text x="64" y="334.5" text-anchor="end" font-size="11" fill="#64748b">1.4</text><line x1="72" y1="285.2" x2="924" y2="285.2" stroke="#e2e8f0"/><text x="64" y="289.2" text-anchor="end" font-size="11" fill="#64748b">1.6</text><line x1="72" y1="239.8" x2="924" y2="239.8" stroke="#e2e8f0"/><text x="64" y="243.8" text-anchor="end" font-size="11" fill="#64748b">1.8</text><line x1="72" y1="194.5" x2="924" y2="194.5" stroke="#e2e8f0"/><text x="64" y="198.5" text-anchor="end" font-size="11" fill="#64748b">2.0</text><line x1="72" y1="149.1" x2="924" y2="149.1" stroke="#e2e8f0"/><text x="64" y="153.1" text-anchor="end" font-size="11" fill="#64748b">2.2</text><line x1="72" y1="103.7" x2="924" y2="103.7" stroke="#e2e8f0"/><text x="64" y="107.7" text-anchor="end" font-size="11" fill="#64748b">2.4</text>
  <polyline points="98.6,407.4 197.9,421.0 276.9,424.6 316.5,425.8 342.8,413.1 418.7,408.3 495.1,398.6 541.9,172.9 603.9,147.1 662.8,141.8 732.3,125.1 791.3,149.3 842.6,134.4 888.1,109.9 897.4,99.2" fill="none" stroke="#1d4ed8" stroke-width="2" opacity="0.85"/><polyline points="197.9,429.8 276.9,440.5 316.5,444.8 342.8,469.5 418.7,471.8 495.1,425.1 541.9,425.3 603.9,406.3 662.8,166.8 732.3,142.8 791.3,145.5 842.6,132.3 888.1,138.7 897.4,149.1" fill="none" stroke="#c2410c" stroke-width="2" opacity="0.85"/><polyline points="342.8,455.0 418.7,461.4 495.1,485.9 541.9,481.8 603.9,475.4 662.8,432.6 732.3,186.7 791.3,155.7 842.6,140.3 888.1,142.8" fill="none" stroke="#15803d" stroke-width="2" opacity="0.85"/>
  <circle cx="98.6" cy="407.4" r="4" fill="#1d4ed8" stroke="#1d4ed8" stroke-width="1.4"/><text x="105.6" y="400.4" font-size="10" fill="#334155">u0</text><circle cx="197.9" cy="421.0" r="4" fill="#1d4ed8" stroke="#1d4ed8" stroke-width="1.4"/><circle cx="276.9" cy="424.6" r="4" fill="#1d4ed8" stroke="#1d4ed8" stroke-width="1.4"/><circle cx="316.5" cy="425.8" r="6" fill="#fbbf24" stroke="#0f172a" stroke-width="1.4"/><text x="323.5" y="418.8" font-size="10" fill="#334155">u3</text><circle cx="342.8" cy="413.1" r="4" fill="#1d4ed8" stroke="#1d4ed8" stroke-width="1.4"/><text x="349.8" y="406.1" font-size="10" fill="#334155">t0</text><circle cx="418.7" cy="408.3" r="4" fill="#1d4ed8" stroke="#1d4ed8" stroke-width="1.4"/><text x="425.7" y="401.3" font-size="10" fill="#334155">t1</text><circle cx="495.1" cy="398.6" r="4" fill="#1d4ed8" stroke="#1d4ed8" stroke-width="1.4"/><text x="502.1" y="391.6" font-size="10" fill="#334155">t2</text><circle cx="541.9" cy="172.9" r="4" fill="#1d4ed8" stroke="#1d4ed8" stroke-width="1.4"/><circle cx="603.9" cy="147.1" r="4" fill="#1d4ed8" stroke="#1d4ed8" stroke-width="1.4"/><circle cx="662.8" cy="141.8" r="4" fill="#1d4ed8" stroke="#1d4ed8" stroke-width="1.4"/><text x="669.8" y="134.8" font-size="10" fill="#334155">s1</text><circle cx="732.3" cy="125.1" r="4" fill="#1d4ed8" stroke="#1d4ed8" stroke-width="1.4"/><text x="739.3" y="118.1" font-size="10" fill="#334155">s2</text><circle cx="791.3" cy="149.3" r="4" fill="#1d4ed8" stroke="#1d4ed8" stroke-width="1.4"/><circle cx="842.6" cy="134.4" r="4" fill="#1d4ed8" stroke="#1d4ed8" stroke-width="1.4"/><circle cx="888.1" cy="109.9" r="4" fill="#1d4ed8" stroke="#1d4ed8" stroke-width="1.4"/><circle cx="897.4" cy="99.2" r="4" fill="#1d4ed8" stroke="#1d4ed8" stroke-width="1.4"/><circle cx="197.9" cy="429.8" r="4" fill="#c2410c" stroke="#c2410c" stroke-width="1.4"/><circle cx="276.9" cy="440.5" r="4" fill="#c2410c" stroke="#c2410c" stroke-width="1.4"/><circle cx="316.5" cy="444.8" r="4" fill="#c2410c" stroke="#c2410c" stroke-width="1.4"/><text x="323.5" y="437.8" font-size="10" fill="#334155">u3</text><circle cx="342.8" cy="469.5" r="4" fill="#c2410c" stroke="#c2410c" stroke-width="1.4"/><text x="349.8" y="462.5" font-size="10" fill="#334155">t0</text><circle cx="418.7" cy="471.8" r="6" fill="#fbbf24" stroke="#0f172a" stroke-width="1.4"/><text x="425.7" y="464.8" font-size="10" fill="#334155">t1</text><circle cx="495.1" cy="425.1" r="4" fill="#c2410c" stroke="#c2410c" stroke-width="1.4"/><text x="502.1" y="418.1" font-size="10" fill="#334155">t2</text><circle cx="541.9" cy="425.3" r="4" fill="#c2410c" stroke="#c2410c" stroke-width="1.4"/><circle cx="603.9" cy="406.3" r="4" fill="#c2410c" stroke="#c2410c" stroke-width="1.4"/><circle cx="662.8" cy="166.8" r="4" fill="#c2410c" stroke="#c2410c" stroke-width="1.4"/><text x="669.8" y="159.8" font-size="10" fill="#334155">s1</text><circle cx="732.3" cy="142.8" r="4" fill="#c2410c" stroke="#c2410c" stroke-width="1.4"/><text x="739.3" y="135.8" font-size="10" fill="#334155">s2</text><circle cx="791.3" cy="145.5" r="4" fill="#c2410c" stroke="#c2410c" stroke-width="1.4"/><circle cx="842.6" cy="132.3" r="4" fill="#c2410c" stroke="#c2410c" stroke-width="1.4"/><circle cx="888.1" cy="138.7" r="4" fill="#c2410c" stroke="#c2410c" stroke-width="1.4"/><circle cx="897.4" cy="149.1" r="4" fill="#c2410c" stroke="#c2410c" stroke-width="1.4"/><circle cx="342.8" cy="455.0" r="4" fill="#15803d" stroke="#15803d" stroke-width="1.4"/><text x="349.8" y="448.0" font-size="10" fill="#334155">t0</text><circle cx="418.7" cy="461.4" r="4" fill="#15803d" stroke="#15803d" stroke-width="1.4"/><text x="425.7" y="454.4" font-size="10" fill="#334155">t1</text><circle cx="495.1" cy="485.9" r="6" fill="#fbbf24" stroke="#0f172a" stroke-width="1.4"/><text x="502.1" y="478.9" font-size="10" fill="#334155">t2</text><circle cx="541.9" cy="481.8" r="4" fill="#15803d" stroke="#15803d" stroke-width="1.4"/><circle cx="603.9" cy="475.4" r="4" fill="#15803d" stroke="#15803d" stroke-width="1.4"/><circle cx="662.8" cy="432.6" r="4" fill="#15803d" stroke="#15803d" stroke-width="1.4"/><text x="669.8" y="425.6" font-size="10" fill="#334155">s1</text><circle cx="732.3" cy="186.7" r="4" fill="#15803d" stroke="#15803d" stroke-width="1.4"/><text x="739.3" y="179.7" font-size="10" fill="#334155">s2</text><circle cx="791.3" cy="155.7" r="4" fill="#15803d" stroke="#15803d" stroke-width="1.4"/><circle cx="842.6" cy="140.3" r="4" fill="#15803d" stroke="#15803d" stroke-width="1.4"/><circle cx="888.1" cy="142.8" r="4" fill="#15803d" stroke="#15803d" stroke-width="1.4"/>
  <line x1="750" y1="88" x2="772" y2="88" stroke="#1d4ed8" stroke-width="3"/><text x="778" y="92" font-size="12" fill="#334155">C = 3e18</text><line x1="750" y1="106" x2="772" y2="106" stroke="#c2410c" stroke-width="3"/><text x="778" y="110" font-size="12" fill="#334155">C = 1e19</text><line x1="750" y1="124" x2="772" y2="124" stroke="#15803d" stroke-width="3"/><text x="778" y="128" font-size="12" fill="#334155">C = 3e19</text><circle cx="758" cy="146" r="6" fill="#fbbf24" stroke="#0f172a"/><text x="778" y="150" font-size="12" fill="#334155">valley proxy</text>
  <text x="498.0" y="548" text-anchor="middle" font-size="12" fill="#334155">M (non-embedding FLOPs / token, log10)</text>
  <text x="18" y="280.0" font-size="12" fill="#334155" transform="rotate(-90 18 280.0)">held-out bits-per-byte</text>
</svg>
