<?xml version="1.0" encoding="UTF-8"?>
<svg xmlns="http://www.w3.org/2000/svg" viewBox="0 0 920 396" width="920" height="396">
<style><![CDATA[
  .t { font: 700 15px sans-serif; fill: #1a1a2e; text-anchor: middle; }
  .st { font: 11px sans-serif; fill: #666; text-anchor: middle; }
  .lb { font: 600 11px sans-serif; fill: #222; text-anchor: middle; }
  .dt { font: 10px sans-serif; fill: #555; text-anchor: middle; }
  .an { font: 9px sans-serif; fill: #2563eb; text-anchor: middle; }
  .arr { stroke: #666; stroke-width: 1.5; fill: none; marker-end: url(#benca); }
  .arr-b { stroke: #4A90D9; stroke-width: 1.5; fill: none; marker-end: url(#bencab); }
  .arr-g { stroke: #27AE60; stroke-width: 1.5; fill: none; marker-end: url(#bencag); }
  .arr-o { stroke: #E67E22; stroke-width: 1.5; fill: none; marker-end: url(#bencao); }
]]></style>
<defs>
  <marker id="benca" markerWidth="7" markerHeight="7" refX="6" refY="3.5" orient="auto"><path d="M0,0 L7,3.5 L0,7 Z" fill="#666"/></marker>
  <marker id="bencab" markerWidth="7" markerHeight="7" refX="6" refY="3.5" orient="auto"><path d="M0,0 L7,3.5 L0,7 Z" fill="#4A90D9"/></marker>
  <marker id="bencag" markerWidth="7" markerHeight="7" refX="6" refY="3.5" orient="auto"><path d="M0,0 L7,3.5 L0,7 Z" fill="#27AE60"/></marker>
  <marker id="bencao" markerWidth="7" markerHeight="7" refX="6" refY="3.5" orient="auto"><path d="M0,0 L7,3.5 L0,7 Z" fill="#E67E22"/></marker>
</defs>
<text x="460" y="22" class="t" text-anchor="middle">BBPE 编码流程（推理侧）</text><rect x="120" y="50" width="680" height="44" rx="6" fill="#f8f9fc" stroke="#94a3b8" stroke-width="1.5"/><text x="460" y="72" class="lb" text-anchor="middle">UTF-8 文本</text><line x1="460" y1="94" x2="460" y2="104" class="arr"/><rect x="120" y="106" width="680" height="44" rx="6" fill="#f8f9fc" stroke="#94a3b8" stroke-width="1.5"/><text x="460" y="128" class="lb" text-anchor="middle">pre-tokenization（字符类切分 + 数字 digit 化）</text><line x1="460" y1="150" x2="460" y2="160" class="arr"/><rect x="120" y="162" width="680" height="44" rx="6" fill="#f8f9fc" stroke="#94a3b8" stroke-width="1.5"/><text x="460" y="184" class="lb" text-anchor="middle">byte 序列</text><line x1="460" y1="206" x2="460" y2="216" class="arr"/><rect x="120" y="218" width="680" height="44" rx="6" fill="#f8f9fc" stroke="#94a3b8" stroke-width="1.5"/><text x="460" y="240" class="lb" text-anchor="middle">BBPE merge 表查最长匹配</text><line x1="460" y1="262" x2="460" y2="272" class="arr"/><rect x="120" y="274" width="680" height="44" rx="6" fill="#f8f9fc" stroke="#94a3b8" stroke-width="1.5"/><text x="460" y="296" class="lb" text-anchor="middle">token id 序列（≤ 100,015 有效 id）</text><line x1="460" y1="318" x2="460" y2="328" class="arr"/><rect x="120" y="330" width="680" height="44" rx="6" fill="#f8f9fc" stroke="#94a3b8" stroke-width="1.5"/><text x="460" y="352" class="lb" text-anchor="middle">embedding[102,400] 查表 → 模型</text></svg>