<?xml version="1.0" encoding="UTF-8"?>
<svg xmlns="http://www.w3.org/2000/svg" viewBox="0 0 920 448" width="920" height="448">
<style><![CDATA[
  .t { font: 700 15px sans-serif; fill: #1a1a2e; text-anchor: middle; }
  .st { font: 11px sans-serif; fill: #666; text-anchor: middle; }
  .ph { font: 600 12px sans-serif; fill: #4a5a7a; }
  .lb { font: 600 11px sans-serif; fill: #222; text-anchor: middle; }
  .dt { font: 10px sans-serif; fill: #555; text-anchor: middle; }
  .an { font: 9px sans-serif; fill: #2563eb; text-anchor: middle; }
  .arr { stroke: #666; stroke-width: 1.5; fill: none; marker-end: url(#dsla); }
  .arr-d { stroke: #888; stroke-width: 1.2; fill: none; stroke-dasharray: 5 4; marker-end: url(#dslad); }
  .arr-b { stroke: #4A90D9; stroke-width: 1.5; fill: none; marker-end: url(#dslab); }
  .arr-g { stroke: #27AE60; stroke-width: 1.5; fill: none; marker-end: url(#dslag); }
]]></style>
<defs>
  <marker id="dsla" markerWidth="7" markerHeight="7" refX="6" refY="3.5" orient="auto"><path d="M0,0 L7,3.5 L0,7 Z" fill="#666"/></marker>
  <marker id="dslad" markerWidth="7" markerHeight="7" refX="6" refY="3.5" orient="auto"><path d="M0,0 L7,3.5 L0,7 Z" fill="#888"/></marker>
  <marker id="dslab" markerWidth="7" markerHeight="7" refX="6" refY="3.5" orient="auto"><path d="M0,0 L7,3.5 L0,7 Z" fill="#4A90D9"/></marker>
  <marker id="dslag" markerWidth="7" markerHeight="7" refX="6" refY="3.5" orient="auto"><path d="M0,0 L7,3.5 L0,7 Z" fill="#27AE60"/></marker>
</defs>
<text x="460" y="22" class="t">DeepSeek 版本时间线与关系</text><text x="460" y="40" class="st">算法演进 (上) 与基础设施补丁 (下)</text><rect x="24" y="56" width="872" height="228" rx="8" fill="#eef1f8" stroke="#b0bdd4" stroke-width="1.5" stroke-dasharray="6 3"/><text x="36" y="74" class="ph">算法演进</text><rect x="24" y="103" width="108" height="78" rx="6" fill="#f8f9fc" stroke="#c5cee0" stroke-width="1.5"/><text x="78" y="121" class="lb">V3</text><text x="78" y="137" class="dt">2024-12</text><text x="78" y="151" class="dt">MoE + MLA</text><text x="78" y="165" class="dt">128K</text><rect x="144" y="103" width="108" height="78" rx="6" fill="#f8f9fc" stroke="#c5cee0" stroke-width="1.5"/><text x="198" y="121" class="lb">R1</text><text x="198" y="137" class="dt">2025-01</text><text x="198" y="151" class="dt">V3-Base</text><text x="198" y="165" class="dt">+ RLVR</text><rect x="264" y="103" width="108" height="78" rx="6" fill="#f8f9fc" stroke="#c5cee0" stroke-width="1.5"/><text x="318" y="121" class="lb">V3.1-T</text><text x="318" y="137" class="dt">2025</text><text x="318" y="151" class="dt">Hybrid</text><text x="318" y="165" class="dt">128K</text><rect x="384" y="103" width="108" height="78" rx="6" fill="#f8f9fc" stroke="#c5cee0" stroke-width="1.5"/><text x="438" y="121" class="lb">V3.2-Exp</text><text x="438" y="137" class="dt">DeepSeek</text><text x="438" y="151" class="dt">2025-09</text><text x="438" y="165" class="dt">+ DSA 实验</text><rect x="504" y="103" width="108" height="78" rx="6" fill="#f8f9fc" stroke="#c5cee0" stroke-width="1.5"/><text x="558" y="121" class="lb">V3.2</text><text x="558" y="137" class="dt">2025-12</text><text x="558" y="151" class="dt">DSA 正式版</text><rect x="644" y="103" width="108" height="78" rx="6" fill="#f8f9fc" stroke="#c5cee0" stroke-width="1.5"/><text x="698" y="121" class="lb">V4</text><text x="698" y="137" class="dt">2026</text><text x="698" y="151" class="dt">CSA + HCA + mHC</text><text x="698" y="165" class="dt">1M</text><line x1="372" y1="142" x2="384" y2="142" class="arr"/><line x1="492" y1="142" x2="504" y2="142" class="arr"/><line x1="612" y1="142" x2="644" y2="142" class="arr"/><line x1="78" y1="85" x2="198" y2="85" class="arr-b"/><line x1="252" y1="85" x2="264" y2="111" class="arr-b"/><text x="248" y="75" class="an">post-train / RLVR</text><rect x="24" y="300" width="872" height="132" rx="8" fill="#eef1f8" stroke="#8fbc8f" stroke-width="1.5" stroke-dasharray="6 3"/><text x="36" y="318" class="ph">基础设施补丁</text><rect x="115" y="330" width="130" height="64" rx="6" fill="#f0faf0" stroke="#27AE60" stroke-width="1.5"/><text x="180" y="348" class="lb">Index Share</text><text x="180" y="364" class="dt">IndexCache</text><text x="180" y="378" class="dt">V3.2 衍生</text><rect x="295" y="330" width="130" height="64" rx="6" fill="#f0faf0" stroke="#27AE60" stroke-width="1.5"/><text x="360" y="348" class="lb">ESS</text><text x="360" y="364" class="dt">Latent offload</text><text x="360" y="378" class="dt">V3.2 衍生</text><rect x="475" y="330" width="130" height="64" rx="6" fill="#f0faf0" stroke="#27AE60" stroke-width="1.5"/><text x="540" y="348" class="lb">DSpark</text><text x="540" y="364" class="dt">V4 投机解码</text><text x="540" y="378" class="dt">DeepSpec</text><rect x="655" y="330" width="130" height="64" rx="6" fill="#f0faf0" stroke="#27AE60" stroke-width="1.5"/><text x="720" y="348" class="lb">HiSparse</text><text x="720" y="364" class="dt">V4 异构 KV</text><text x="720" y="378" class="dt">CPU + 磁盘</text><line x1="558" y1="181" x2="180" y2="322" class="arr-g"/><line x1="558" y1="181" x2="360" y2="322" class="arr-g"/><line x1="698" y1="181" x2="540" y2="322" class="arr-g"/><line x1="698" y1="181" x2="720" y2="322" class="arr-g"/><text x="400" y="292" class="an">V3.2 衍生</text><text x="620" y="292" class="an">V4 衍生</text></svg>