<?xml version="1.0" encoding="UTF-8"?>
<svg xmlns="http://www.w3.org/2000/svg" viewBox="0 0 980 580" width="980" height="580">
<style><![CDATA[
  .t { font: 700 15px sans-serif; fill: #1a1a2e; text-anchor: middle; }
  .st { font: 11px sans-serif; fill: #666; text-anchor: middle; }
  .ph { font: 600 12px sans-serif; fill: #4a5a7a; }
  .lb { font: 600 11px sans-serif; fill: #222; text-anchor: middle; }
  .dt { font: 10px sans-serif; fill: #555; text-anchor: middle; }
  .an { font: 9px sans-serif; fill: #2563eb; text-anchor: middle; }
  .arr { stroke: #666; stroke-width: 1.5; fill: none; marker-end: url(#opta); }
  .arr-d { stroke: #888; stroke-width: 1.2; fill: none; stroke-dasharray: 5 4; marker-end: url(#optad); }
  .arr-b { stroke: #4A90D9; stroke-width: 1.5; fill: none; marker-end: url(#optab); }
  .arr-g { stroke: #27AE60; stroke-width: 1.5; fill: none; marker-end: url(#optag); }
]]></style>
<defs>
  <marker id="opta" markerWidth="7" markerHeight="7" refX="6" refY="3.5" orient="auto"><path d="M0,0 L7,3.5 L0,7 Z" fill="#666"/></marker>
  <marker id="optad" markerWidth="7" markerHeight="7" refX="6" refY="3.5" orient="auto"><path d="M0,0 L7,3.5 L0,7 Z" fill="#888"/></marker>
  <marker id="optab" markerWidth="7" markerHeight="7" refX="6" refY="3.5" orient="auto"><path d="M0,0 L7,3.5 L0,7 Z" fill="#4A90D9"/></marker>
  <marker id="optag" markerWidth="7" markerHeight="7" refX="6" refY="3.5" orient="auto"><path d="M0,0 L7,3.5 L0,7 Z" fill="#27AE60"/></marker>
</defs>
<text x="490" y="30" class="t">优化方向三轴分布</text><text x="490" y="50" class="st">各工作按 模型 / 架构-train / 架构-infer 占比落点（占比见 1.1 表）</text><polygon points="490,118 120,448 860,448" fill="#f6f8fc" stroke="#94a3b8" stroke-width="2"/><path d="M 675.0,283.0 L 659.6,283.0 L 644.2,283.0 L 628.8,283.0 L 613.3,283.0 L 597.9,283.0 L 582.5,283.0 L 567.1,283.0 L 551.7,283.0 L 536.2,283.0 L 520.8,283.0 L 505.4,283.0 L 490.0,283.0 L 474.6,283.0 L 459.2,283.0 L 443.8,283.0 L 428.3,283.0 L 412.9,283.0 L 397.5,283.0 L 382.1,283.0 L 366.7,283.0 L 351.2,283.0 L 335.8,283.0 L 320.4,283.0 L 305.0,283.0" fill="none" stroke="#d8dee9" stroke-width="1" stroke-dasharray="4 5"/><path d="M 490.0,448.0 L 482.3,441.1 L 474.6,434.2 L 466.9,427.4 L 459.2,420.5 L 451.5,413.6 L 443.8,406.8 L 436.0,399.9 L 428.3,393.0 L 420.6,386.1 L 412.9,379.2 L 405.2,372.4 L 397.5,365.5 L 389.8,358.6 L 382.1,351.8 L 374.4,344.9 L 366.7,338.0 L 359.0,331.1 L 351.2,324.2 L 343.5,317.4 L 335.8,310.5 L 328.1,303.6 L 320.4,296.8 L 312.7,289.9 L 305.0,283.0" fill="none" stroke="#d8dee9" stroke-width="1" stroke-dasharray="4 5"/><path d="M 490.0,448.0 L 497.7,441.1 L 505.4,434.2 L 513.1,427.4 L 520.8,420.5 L 528.5,413.6 L 536.2,406.8 L 544.0,399.9 L 551.7,393.0 L 559.4,386.1 L 567.1,379.2 L 574.8,372.4 L 582.5,365.5 L 590.2,358.6 L 597.9,351.8 L 605.6,344.9 L 613.3,338.0 L 621.0,331.1 L 628.8,324.2 L 636.5,317.4 L 644.2,310.5 L 651.9,303.6 L 659.6,296.8 L 667.3,289.9 L 675.0,283.0" fill="none" stroke="#d8dee9" stroke-width="1" stroke-dasharray="4 5"/><text x="490" y="96" class="lb" fill="#2563eb">模型</text><text x="490" y="112" class="dt">权重/数据/后训练</text><text x="110" y="472" class="lb" fill="#d97706" text-anchor="end">架构-train</text><text x="110" y="488" class="dt" text-anchor="end">训推结构/重训算子</text><text x="870" y="472" class="lb" fill="#7c3aed" text-anchor="start">架构-infer</text><text x="870" y="488" class="dt" text-anchor="start">推理路径/infer 补丁</text><line x1="490.0" y1="92.0" x2="479.0" y2="52.0" stroke="#2563eb" stroke-width="1" stroke-opacity="0.45"/><circle cx="490.0" cy="92.0" r="5" fill="#2563eb" stroke="#fff" stroke-width="1.5"/><text x="479.0" y="55.0" class="an" fill="#2563eb" text-anchor="middle">V1</text><line x1="490.0" y1="144.0" x2="501.0" y2="104.0" stroke="#2563eb" stroke-width="1" stroke-opacity="0.45"/><circle cx="490.0" cy="144.0" r="5" fill="#2563eb" stroke="#fff" stroke-width="1.5"/><text x="501.0" y="107.0" class="an" fill="#2563eb" text-anchor="middle">R1</text><line x1="564.0" y1="184.0" x2="581.8" y2="146.9" stroke="#2563eb" stroke-width="1" stroke-opacity="0.45"/><circle cx="564.0" cy="184.0" r="5" fill="#2563eb" stroke="#fff" stroke-width="1.5"/><text x="581.8" y="149.9" class="an" fill="#2563eb" text-anchor="middle">V3.1</text><line x1="453.0" y1="250.0" x2="436.1" y2="209.7" stroke="#2563eb" stroke-width="1" stroke-opacity="0.45"/><circle cx="453.0" cy="250.0" r="5" fill="#2563eb" stroke="#fff" stroke-width="1.5"/><text x="436.1" y="212.7" class="an" fill="#2563eb" text-anchor="middle">Visual</text><line x1="120.0" y1="422.0" x2="71.2" y2="441.3" stroke="#d97706" stroke-width="1" stroke-opacity="0.45"/><circle cx="120.0" cy="422.0" r="5" fill="#d97706" stroke="#fff" stroke-width="1.5"/><text x="71.2" y="444.3" class="an" fill="#d97706" text-anchor="end">FP8</text><line x1="120.0" y1="474.0" x2="67.4" y2="484.8" stroke="#d97706" stroke-width="1" stroke-opacity="0.45"/><circle cx="120.0" cy="474.0" r="5" fill="#d97706" stroke="#fff" stroke-width="1.5"/><text x="67.4" y="487.8" class="an" fill="#d97706" text-anchor="end">Muon</text><line x1="342.0" y1="448.0" x2="310.0" y2="471.8" stroke="#d97706" stroke-width="1" stroke-opacity="0.45"/><circle cx="342.0" cy="448.0" r="5" fill="#d97706" stroke="#fff" stroke-width="1.5"/><text x="310.0" y="474.8" class="an" fill="#d97706" text-anchor="end">MTP</text><line x1="453.0" y1="430.0" x2="441.1" y2="481.1" stroke="#d97706" stroke-width="1" stroke-opacity="0.45"/><circle cx="453.0" cy="430.0" r="5" fill="#d97706" stroke="#fff" stroke-width="1.5"/><text x="441.1" y="484.1" class="an" fill="#d97706" text-anchor="middle">mHC</text><line x1="453.0" y1="466.0" x2="429.1" y2="519.7" stroke="#d97706" stroke-width="1" stroke-opacity="0.45"/><circle cx="453.0" cy="466.0" r="5" fill="#d97706" stroke="#fff" stroke-width="1.5"/><text x="429.1" y="522.7" class="an" fill="#d97706" text-anchor="middle">Hash MoE</text><line x1="490.0" y1="448.0" x2="490.0" y2="495.0" stroke="#d97706" stroke-width="1" stroke-opacity="0.45"/><circle cx="490.0" cy="448.0" r="5" fill="#d97706" stroke="#fff" stroke-width="1.5"/><text x="490.0" y="498.0" class="an" fill="#d97706" text-anchor="middle">V3 路由</text><line x1="527.0" y1="448.0" x2="539.7" y2="485.8" stroke="#7c3aed" stroke-width="1" stroke-opacity="0.45"/><circle cx="527.0" cy="448.0" r="5" fill="#7c3aed" stroke="#fff" stroke-width="1.5"/><text x="539.7" y="488.8" class="an" fill="#7c3aed" text-anchor="middle">MoE</text><line x1="564.0" y1="448.0" x2="586.2" y2="481.1" stroke="#7c3aed" stroke-width="1" stroke-opacity="0.45"/><circle cx="564.0" cy="448.0" r="5" fill="#7c3aed" stroke="#fff" stroke-width="1.5"/><text x="586.2" y="484.1" class="an" fill="#7c3aed" text-anchor="middle">MLA</text><line x1="601.0" y1="448.0" x2="629.3" y2="476.0" stroke="#7c3aed" stroke-width="1" stroke-opacity="0.45"/><circle cx="601.0" cy="448.0" r="5" fill="#7c3aed" stroke="#fff" stroke-width="1.5"/><text x="629.3" y="479.0" class="an" fill="#7c3aed" text-anchor="start">DSA</text><line x1="638.0" y1="448.0" x2="674.1" y2="474.8" stroke="#7c3aed" stroke-width="1" stroke-opacity="0.45"/><circle cx="638.0" cy="448.0" r="5" fill="#7c3aed" stroke="#fff" stroke-width="1.5"/><text x="674.1" y="477.8" class="an" fill="#7c3aed" text-anchor="start">CSA/HCA</text><line x1="860.0" y1="413.0" x2="913.3" y2="382.2" stroke="#7c3aed" stroke-width="1" stroke-opacity="0.45"/><circle cx="860.0" cy="413.0" r="5" fill="#7c3aed" stroke="#fff" stroke-width="1.5"/><text x="913.3" y="385.2" class="an" fill="#7c3aed" text-anchor="start">Terminus</text><line x1="890.3" y1="430.5" x2="957.0" y2="416.3" stroke="#7c3aed" stroke-width="1" stroke-opacity="0.45"/><circle cx="890.3" cy="430.5" r="5" fill="#7c3aed" stroke="#fff" stroke-width="1.5"/><text x="957.0" y="419.3" class="an" fill="#7c3aed" text-anchor="start">Index Share</text><line x1="890.3" y1="465.5" x2="940.6" y2="470.8" stroke="#7c3aed" stroke-width="1" stroke-opacity="0.45"/><circle cx="890.3" cy="465.5" r="5" fill="#7c3aed" stroke="#fff" stroke-width="1.5"/><text x="940.6" y="473.8" class="an" fill="#7c3aed" text-anchor="start">ESS</text><line x1="860.0" y1="483.0" x2="912.3" y2="506.3" stroke="#7c3aed" stroke-width="1" stroke-opacity="0.45"/><circle cx="860.0" cy="483.0" r="5" fill="#7c3aed" stroke="#fff" stroke-width="1.5"/><text x="912.3" y="509.3" class="an" fill="#7c3aed" text-anchor="start">DSpark</text><line x1="829.7" y1="465.5" x2="875.5" y2="506.7" stroke="#7c3aed" stroke-width="1" stroke-opacity="0.45"/><circle cx="829.7" cy="465.5" r="5" fill="#7c3aed" stroke="#fff" stroke-width="1.5"/><text x="875.5" y="509.7" class="an" fill="#7c3aed" text-anchor="start">HiSparse</text><line x1="829.7" y1="430.5" x2="860.5" y2="483.8" stroke="#7c3aed" stroke-width="1" stroke-opacity="0.45"/><circle cx="829.7" cy="430.5" r="5" fill="#7c3aed" stroke="#fff" stroke-width="1.5"/><text x="860.5" y="486.8" class="an" fill="#7c3aed" text-anchor="start">FlashMLA</text><line x1="48" y1="506" x2="932" y2="506" stroke="#e2e8f0" stroke-width="1"/><circle cx="56" cy="528" r="5" fill="#2563eb"/><text x="70" y="532" class="dt" text-anchor="start">模型轴主导 (&gt;=50%)</text><circle cx="284" cy="528" r="5" fill="#d97706"/><text x="298" y="532" class="dt" text-anchor="start">架构-train 主导</text><circle cx="512" cy="528" r="5" fill="#7c3aed"/><text x="526" y="532" class="dt" text-anchor="start">架构-infer 主导</text><circle cx="740" cy="528" r="5" fill="#475569"/><text x="754" y="532" class="dt" text-anchor="start">多轴混合 (无单一 &gt;=50%)</text><text x="490" y="558" class="st">同占比多点扇形展开；标签经引出线外置，100% 单轴工作聚于对应顶点</text></svg>